<?xml version="1.0" encoding="UTF-8"?>
<svg xmlns="http://www.w3.org/2000/svg" width="145" height="30" viewBox="0 0 145 30" fill="none">
  <g clip-path="url(#clip0_150_46)">
    <path d="M44.8704 17.4292C44.8028 17.307 44.6734 17.2293 44.5327 17.2293C44.392 17.2293 44.2626 17.307 44.195 17.4292L41.2742 22.8595C41.2123 22.9761 41.2123 23.1149 41.2855 23.2315C41.3586 23.3481 41.4768 23.4148 41.6119 23.4148H47.431C47.5661 23.4148 47.6899 23.3426 47.7574 23.2315C47.825 23.1205 47.8306 22.9761 47.7687 22.8595L44.8704 17.4292Z" fill="#DE3431"></path>
    <path d="M106.647 9.30594C106.59 9.21155 106.483 9.15602 106.371 9.15602H101.52C101.407 9.15602 101.306 9.21155 101.244 9.30594C101.188 9.40033 101.182 9.51693 101.233 9.61688L103.647 14.1421C103.703 14.2476 103.81 14.3087 103.928 14.3087C104.047 14.3087 104.154 14.2421 104.21 14.1421L106.647 9.61688C106.709 9.51693 106.703 9.40033 106.647 9.30594Z" fill="#DE3431"></path>
    <path d="M47.0202 -0.000161945C45.4613 0.00539053 43.863 0.00539053 42.2478 -0.000161945C38.8205 6.313 35.3875 12.6151 31.9602 18.9227L29.5178 23.4091H30.0862C30.3732 23.4091 30.6658 23.4091 30.9585 23.4091C32.1122 23.4091 33.2884 23.4091 34.4533 23.4146C34.7291 22.8871 35.0105 22.3596 35.2919 21.8377C35.7533 20.9715 44.0994 5.39684 44.0994 5.39684C44.2063 5.2025 44.4089 5.08035 44.634 5.08035C44.8591 5.08035 45.0673 5.2025 45.1686 5.40239L53.8917 21.71C54.2012 22.2819 54.5051 22.8483 54.809 23.4202C56.2948 23.4146 57.7693 23.4146 59.2437 23.4146H59.7502L57.8424 19.911C54.2406 13.2758 50.6276 6.64059 47.0202 -0.000161945Z" fill="white"></path>
    <path d="M100.788 3.77552C103.63 3.77552 106.573 3.76997 109.466 3.78662C110.136 3.79218 110.704 3.86436 111.211 4.00872C112.415 4.35853 113.152 5.33576 113.237 6.69057C113.254 6.92377 113.254 7.16253 113.254 7.36241V9.22805C113.254 11.4823 113.259 13.8088 113.248 16.102C113.248 16.3852 113.231 16.6461 113.203 16.8905L117.615 14.5973C117.615 11.8488 117.621 9.03371 117.604 6.25747C117.598 5.6356 117.536 5.01927 117.418 4.42516C117.092 2.80384 116.186 1.5934 114.723 0.827156C113.721 0.299672 112.595 0.0442578 111.278 0.0276004C109.596 0.010943 107.879 0.0164955 106.225 0.0164955C105.521 0.0164955 104.818 0.0164955 104.114 0.0164955C104.097 0.0164955 104.075 0.0164955 104.058 0.0164955H102.184C100.574 0.0164955 98.9703 0.0164955 97.3608 0.0164955C97.3551 0.0164955 97.3495 0.0164955 97.3439 0.0164955C96.3815 0.0164955 95.543 0.11644 94.7832 0.327434C93.1906 0.766079 92.0706 1.59895 91.3615 2.88157C91.204 3.16475 91.0802 3.45903 90.9732 3.77552H100.788Z" fill="white"></path>
    <path d="M107.817 19.6889C107.057 19.6889 106.298 19.6889 105.532 19.6889H102.64C101.295 19.6889 99.9552 19.6889 98.6101 19.6889C98.6045 19.6889 98.6045 19.6889 98.5989 19.6889C98.1036 19.6889 97.4621 19.65 96.8261 19.3669C95.7287 18.8782 95.1096 17.9621 94.9858 16.6406C94.9746 16.4907 94.9746 16.3519 94.9746 16.2242V13.5146C94.9746 11.4379 94.9746 9.36686 94.9746 7.29023C94.9746 7.02371 94.9858 6.71278 95.0421 6.39073L90.6243 8.6839C90.6243 9.4557 90.6243 10.2275 90.6243 10.9993C90.6243 13.037 90.6243 15.0692 90.6299 17.107C90.6299 17.6734 90.6524 18.1009 90.7031 18.4951C90.9282 20.2775 91.7611 21.5767 93.2469 22.4596C94.3499 23.1148 95.633 23.4202 97.282 23.4257C100.231 23.4257 103.18 23.4257 106.129 23.4257H110.929C111.813 23.4257 112.578 23.3369 113.276 23.1647C114.964 22.7317 116.146 21.8821 116.884 20.5662C117.041 20.2886 117.165 19.9943 117.272 19.6833L107.817 19.6889Z" fill="white"></path>
    <path d="M21.8189 14.6639C21.8977 14.4862 22.0609 14.353 22.2523 14.3141L22.4718 14.2697C22.6125 14.2419 22.7419 14.2142 22.8657 14.1864C25.235 13.6589 26.7658 11.9321 26.9684 9.56119C27.0809 8.2286 27.0978 6.7683 27.0134 4.96375C26.9346 3.20361 26.1129 1.83771 24.5822 0.915996C23.5804 0.310776 22.4155 0.0276004 20.9241 0.0276004C20.9185 0.0276004 20.9129 0.0276004 20.9129 0.0276004C15.679 0.0331529 10.3495 0.0331529 5.20008 0.0331529H0V23.4091H4.38405V14.986C4.38405 14.9582 4.38968 14.9304 4.38968 14.9027V4.37519C4.38968 4.04204 4.65981 3.77552 4.99748 3.77552H8.55424C12.2967 3.77552 16.0336 3.77552 19.7761 3.76997C20.2263 3.76997 20.9072 3.81439 21.5432 4.20861C22.2467 4.64726 22.6575 5.308 22.7025 6.06869C22.7419 6.74054 22.77 7.53454 22.6969 8.33965C22.5843 9.53343 21.7683 10.3719 20.5133 10.5662C20.2882 10.5995 20.0631 10.6217 19.8492 10.6217C17.857 10.6217 15.8647 10.6217 13.8725 10.6217C13.8725 10.6217 25.5727 28.9338 26.248 29.9943C27.6381 29.9887 31.1554 29.9887 31.1554 29.9887L21.8583 15.2136C21.757 15.047 21.7402 14.8416 21.8189 14.6639Z" fill="white"></path>
    <path d="M88.2212 0.599505V0.0331529H61.962V3.77552H87.7598C87.9173 3.64226 88.0693 3.51455 88.2269 3.38129C88.2212 2.45403 88.2212 1.51011 88.2212 0.599505Z" fill="white"></path>
    <path d="M70.0547 19.2836C69.9591 19.0615 70.0153 18.8005 70.1898 18.6284C70.2179 18.6006 70.2404 18.5784 70.2573 18.5562C70.3023 18.5118 70.3474 18.4674 70.398 18.4229C72.6773 16.4962 74.9565 14.5695 77.2414 12.6484L78.5583 11.5379C79.9653 10.3496 81.3722 9.16697 82.7792 7.97874L78.6934 5.85214L71.1634 12.1597C68.0625 14.7583 64.956 17.3624 61.8494 19.9554C61.855 20.9049 61.855 21.871 61.855 22.8094V23.4146H88.1199V19.6556H70.6119C70.3699 19.65 70.1504 19.5057 70.0547 19.2836Z" fill="white"></path>
    <path d="M137.599 15.5745H132.039L132.658 16.2519C134.836 18.6339 137.02 21.0215 139.192 23.4091L139.198 23.4146C140.909 23.4091 142.642 23.4091 144.319 23.4091H144.994L137.599 15.5745Z" fill="white"></path>
    <path d="M134.318 11.2769L135.9 9.60561L135.934 9.5723L144.994 0.00539053C143.109 0.00539053 141.156 0.00539052 139.243 0.010943C137.402 2.00983 135.534 4.05314 133.728 6.02982L131.628 8.32299C131.516 8.4507 131.347 8.51733 131.178 8.51733H131.173C130.998 8.51733 130.835 8.4396 130.722 8.31189L130.644 8.22305C130.604 8.17863 130.565 8.13421 130.531 8.08979L128.989 6.41294C127.025 4.27524 125.061 2.13199 123.097 -0.00571442C121.425 -0.000161945 119.759 -0.000161945 118.088 -0.000161945H117.323L127.863 11.2769C128.077 11.5046 128.077 11.8599 127.863 12.0876L117.356 23.4035H117.705C119.455 23.4035 121.268 23.4035 123.046 23.4091C123.052 23.4091 123.052 23.4091 123.057 23.4091C123.057 23.4091 123.063 23.4035 123.069 23.398C125.196 21.0715 127.363 18.7172 129.462 16.4352L130.255 15.569L130.503 15.3024C130.548 15.2525 130.593 15.2025 130.644 15.1525L130.705 15.0859C130.717 15.0748 130.722 15.0692 130.734 15.0637L134.313 11.2825C134.313 11.2825 134.318 11.2825 134.318 11.2769Z" fill="white"></path>
  </g>
  <defs>
    <clipPath id="clip0_150_46">
      <rect width="145" height="30" fill="white"></rect>
    </clipPath>
  </defs>
</svg>
